<?xml version="1.0" encoding="utf-8"?>
<!-- Generator: Adobe Illustrator 17.0.0, SVG Export Plug-In . SVG Version: 6.00 Build 0)  -->
<!DOCTYPE svg PUBLIC "-//W3C//DTD SVG 1.1//EN" "http://www.w3.org/Graphics/SVG/1.1/DTD/svg11.dtd">
<svg version="1.1" id="Layer_1" xmlns="http://www.w3.org/2000/svg" xmlns:xlink="http://www.w3.org/1999/xlink" x="0px" y="0px"
	 width="259px" height="298px" viewBox="0 0 259 298" style="enable-background:new 0 0 259 298;" xml:space="preserve">
<style type="text/css">
	.st0{fill:#282763;}
	.st1{fill:#FFFFFF;}
	.st2{fill:none;stroke:#FFFFFF;stroke-width:3;stroke-miterlimit:10;}
</style>
<path class="st0" d="M203.37,234.88c-24.51,0.14,10.52-37.5-9.47-45.68c-11.94-4.85-16.75-23.36-14.47-44.54
	c-9.18,3.28-19.6,5.61-30.88,6.9c-0.9,13.99,0.76,30.83,8.71,48.35c20.03,44.11,39.07,76.28,9.47,76.47
	c-24.51,0.14,10.52-45.06-9.47-54.86c-14.37-7.04-18.46-37.88-12.18-69.57c-4.95,0.43-10.04,0.67-15.23,0.67
	c-6.09,0-12.04-0.29-17.8-0.9c9.14,34.74,5.81,71.09-10.04,78.85c-20.03,9.8,15.04,55.01-9.47,54.86
	c-29.55-0.14-10.52-32.31,9.47-76.42c9.75-21.51,10.04-42.11,7.66-57.58c-17.32-2.09-32.69-6.8-44.35-13.32
	c4.19,23.89-0.33,45.82-13.51,51.15c-20.03,8.18,15.04,45.78-9.47,45.68c-29.6-0.14-10.52-26.89,9.47-63.62
	c7.04-12.85,9.09-25.31,8.85-36.12c-11.47-7.52-18.32-17.08-18.32-27.41c0-5.81,2.14-11.33,6.09-16.42
	c-2.47-6.71-3.81-13.85-3.81-21.27c0-39.73,38.12-55.58,85.18-55.58c47.01,0,85.13,15.85,85.13,55.58c0,7.42-1.33,14.56-3.81,21.27
	c3.95,5.09,6.09,10.61,6.09,16.42c0,13.99-12.47,26.46-32.07,34.64c0.71,8.95,3.14,18.8,8.66,28.84
	C213.88,207.99,232.96,234.73,203.37,234.88z"/>
<circle class="st1" cx="100.38" cy="89.06" r="12.76"/>
<circle class="st1" cx="157.38" cy="89.06" r="12.76"/>
<path class="st2" d="M111.15,119c0,0,15.86-15.75,36.85,0"/>
</svg>
