<svg xmlns="http://www.w3.org/2000/svg" width="100" height="123"><style type="text/css">.st0{opacity:0.6;fill:#FEFBDE;enable-background:new ;} .st1{fill:#FFF200;} .st2{enable-background:new ;} .st3{fill:#2E3192;}</style><ellipse class="st0" cx="50" cy="44.04" rx="32.89" ry="38.45"/><path class="st1" d="M65.89 61.89c-5.15.03 2.21-7.88-1.99-9.6-2.51-1.02-3.52-4.91-3.04-9.36-1.93.69-4.12 1.18-6.49 1.45-.19 2.94.16 6.48 1.83 10.16 4.21 9.27 8.21 16.03 1.99 16.07-5.15.03 2.21-9.47-1.99-11.53-3.02-1.48-3.88-7.96-2.56-14.62-1.04.09-2.11.14-3.2.14-1.28 0-2.53-.06-3.74-.19 1.92 7.3 1.22 14.94-2.11 16.57-4.21 2.06 3.16 11.56-1.99 11.53-6.21-.03-2.21-6.79 1.99-16.06 2.05-4.52 2.11-8.85 1.62-12.1-3.64-.44-6.87-1.43-9.32-2.8.88 5.02-.07 9.63-2.84 10.75-4.21 1.72 3.16 9.62-1.99 9.6-6.22-.03-2.21-5.65 1.99-13.37 1.47-2.7 1.91-5.32 1.86-7.59-2.41-1.58-3.85-3.59-3.85-5.76 0-1.22.45-2.38 1.28-3.45-.52-1.41-.8-2.91-.8-4.47 0-8.35 8.01-11.68 17.9-11.68 9.88 0 17.89 3.33 17.89 11.68 0 1.56-.28 3.06-.8 4.47.83 1.07 1.28 2.23 1.28 3.45 0 2.94-2.62 5.56-6.74 7.28.15 1.88.66 3.95 1.82 6.06 4.22 7.72 8.22 13.35 2 13.37z"/><g class="st2"><path class="st3" d="M26.3 98.83h-.93v-7.49h1.07c2.3 0 3.02.79 3.02 2.17 0 1.58-1.2 2.19-2.62 2.19h-.54v3.13zm0-3.97h.3c.95 0 1.99-.18 1.99-1.37 0-1.17-1.11-1.31-2.04-1.31h-.25v2.68z"/><path class="st3" d="M34.54 98.83h-.89v-.73h-.02c-.36.53-.91.88-1.58.88-1.42 0-2.23-1.18-2.23-2.51 0-1.27.84-2.43 2.2-2.43.69 0 1.24.36 1.61.91h.02v-.77h.89v4.65zm-.84-2.32c0-.9-.55-1.67-1.51-1.67-.92 0-1.47.8-1.47 1.67 0 .87.53 1.69 1.47 1.69.97-.01 1.51-.78 1.51-1.69z"/><path class="st3" d="M36.97 92.06c0 .34-.28.61-.62.61-.34 0-.62-.27-.62-.61 0-.35.28-.63.62-.63.34 0 .62.28.62.63zm-.17 6.77h-.89v-4.65h.89v4.65z"/><path class="st3" d="M39.13 94.81h.02c.28-.5.83-.76 1.4-.76 1.31 0 1.65.88 1.65 2.02v2.77h-.9v-2.66c0-.79-.11-1.33-1.02-1.33-1.15 0-1.15 1.01-1.15 1.86v2.14h-.89v-4.65h.89v.61z"/><path class="st3" d="M45.73 91.11c-.18-.08-.41-.19-.6-.19-.64 0-.64.8-.64 1.26v2h1.23v.83h-1.22v3.81h-.89v-3.81h-.41v-.83h.41v-2.27c0-1.01.35-1.83 1.5-1.83.22 0 .43.04.63.12v.91z"/><path class="st3" d="M47.02 94.18v2.57c0 .75.19 1.4 1.07 1.4s1.07-.66 1.07-1.4v-2.57h.89v2.67c0 1.27-.6 2.14-1.97 2.14s-1.97-.86-1.97-2.14v-2.67h.91z"/><path class="st3" d="M52.18 98.83h-.89v-8.62h.89v8.62z"/><path class="st3" d="M55.25 97.96l-1.32 2.65-.55-.23 1.09-2.73.78.31z"/><path class="st3" d="M59.13 90.21h.89v4.75h.02c.37-.56.92-.91 1.62-.91 1.34 0 2.18 1.16 2.18 2.43 0 1.33-.79 2.51-2.22 2.51-.66 0-1.22-.36-1.58-.88h-.02v.73h-.89v-8.63zm3.83 6.3c0-.9-.55-1.67-1.51-1.67-.92 0-1.47.8-1.47 1.67 0 .87.53 1.69 1.47 1.69.97-.01 1.51-.78 1.51-1.69z"/><path class="st3" d="M65.58 94.18v2.57c0 .75.19 1.4 1.07 1.4.88 0 1.07-.66 1.07-1.4v-2.57h.89v2.67c0 1.27-.6 2.14-1.97 2.14s-1.97-.86-1.97-2.14v-2.67h.91z"/><path class="st3" d="M70.84 98.83h-.89v-3.81h-.49v-.83h.49v-1.79h.89v1.78h.87v.83h-.87v3.82z"/></g><g class="st2"><path class="st3" d="M26.16 106.73h.02c.28-.5.83-.76 1.4-.76 1.31 0 1.65.88 1.65 2.02v2.77h-.89v-2.66c0-.79-.11-1.33-1.02-1.33-1.15 0-1.15 1.01-1.15 1.86v2.14h-.89v-4.65h.89v.61z"/><path class="st3" d="M35.01 108.44c0 1.4-1.09 2.47-2.48 2.47s-2.48-1.07-2.48-2.47 1.09-2.47 2.48-2.47 2.48 1.07 2.48 2.47zm-4.07 0c0 .87.71 1.62 1.59 1.62.88 0 1.59-.75 1.59-1.62 0-.88-.71-1.62-1.59-1.62-.89 0-1.59.74-1.59 1.62z"/><path class="st3" d="M36.85 110.76h-.89v-3.81h-.49v-.83h.49v-1.78h.89v1.78h.87v.83h-.87v3.81z"/><path class="st3" d="M43.39 103.04c-.18-.08-.41-.19-.6-.19-.64 0-.64.8-.64 1.26v2h1.23v.83h-1.23v3.81h-.89v-3.81h-.41v-.83h.41v-2.27c0-1.01.35-1.83 1.5-1.83.22 0 .43.04.63.12v.91z"/><path class="st3" d="M48.18 110.76h-.89v-.73h-.02c-.36.53-.91.88-1.58.88-1.42 0-2.23-1.18-2.23-2.51 0-1.27.84-2.43 2.2-2.43.69 0 1.24.36 1.61.91h.02v-.77h.89v4.65zm-.85-2.33c0-.9-.55-1.67-1.51-1.67-.92 0-1.47.8-1.47 1.67 0 .87.53 1.69 1.47 1.69.98 0 1.51-.77 1.51-1.69z"/><path class="st3" d="M50.37 110.76h-.89v-3.81h-.49v-.83h.49v-1.78h.89v1.78h.87v.83h-.87v3.81z"/><path class="st3" d="M56.09 110.76h-.89v-.73h-.02c-.36.53-.91.88-1.58.88-1.42 0-2.23-1.18-2.23-2.51 0-1.27.84-2.43 2.2-2.43.69 0 1.24.36 1.61.91h.02v-.77h.89v4.65zm-.85-2.33c0-.9-.55-1.67-1.51-1.67-.92 0-1.47.8-1.47 1.67 0 .87.53 1.69 1.47 1.69.98 0 1.51-.77 1.51-1.69z"/><path class="st3" d="M58.19 110.76h-.89v-8.62h.89v8.62z"/></g></svg>