<?xml version="1.0" encoding="utf-8"?>
<!-- Generator: Adobe Illustrator 17.0.0, SVG Export Plug-In . SVG Version: 6.00 Build 0)  -->
<!DOCTYPE svg PUBLIC "-//W3C//DTD SVG 1.1//EN" "http://www.w3.org/Graphics/SVG/1.1/DTD/svg11.dtd">
<svg version="1.1" id="Layer_1" xmlns="http://www.w3.org/2000/svg" xmlns:xlink="http://www.w3.org/1999/xlink" x="0px" y="0px"
	 width="100px" height="123px" viewBox="0 0 100 123" enable-background="new 0 0 100 123" xml:space="preserve">
<ellipse opacity="0.6" fill="#8BC973" cx="52.837" cy="41.831" rx="32.889" ry="38.451"/>
<path fill="#00A651" d="M68.73,59.681c-5.149,0.026,2.213-7.878-1.993-9.598c-2.505-1.019-3.522-4.906-3.036-9.364
	c-1.927,0.688-4.119,1.181-6.485,1.447c-0.186,2.94,0.159,6.483,1.827,10.156c4.206,9.267,8.206,16.029,1.993,16.068
	c-5.149,0.026,2.213-9.475-1.993-11.532c-3.023-1.48-3.88-7.956-2.558-14.621c-1.043,0.091-2.113,0.143-3.203,0.143
	c-1.282,0-2.532-0.065-3.741-0.195c1.92,7.301,1.216,14.939-2.106,16.568c-4.206,2.057,3.156,11.564-1.993,11.532
	c-6.212-0.032-2.213-6.795,1.993-16.062c2.053-4.523,2.106-8.852,1.615-12.097c-3.641-0.435-6.87-1.434-9.322-2.797
	c0.877,5.023-0.073,9.631-2.837,10.753c-4.206,1.72,3.156,9.624-1.993,9.598c-6.219-0.026-2.213-5.652,1.993-13.368
	c1.475-2.7,1.914-5.321,1.86-7.586c-2.412-1.583-3.854-3.589-3.854-5.756c0-1.22,0.452-2.382,1.282-3.452
	c-0.518-1.408-0.797-2.907-0.797-4.465c0-8.346,8.013-11.675,17.9-11.675c9.88,0,17.893,3.329,17.893,11.675
	c0,1.558-0.279,3.057-0.797,4.465c0.831,1.071,1.282,2.232,1.282,3.452c0,2.94-2.625,5.562-6.744,7.281
	c0.146,1.882,0.664,3.946,1.821,6.061C70.942,54.028,74.949,59.655,68.73,59.681z"/>
<g>
	<text transform="matrix(1 0 0 1 26.4378 96.6197)"><tspan x="0" y="0" fill="#2E3192" font-family="'Futura'" font-size="9.9381">Harmless, or</tspan><tspan x="0" y="11.926" fill="#2E3192" font-family="'Futura'" font-size="9.9381">mildly painful</tspan></text>
</g>
</svg>
