<svg xmlns="http://www.w3.org/2000/svg" width="100" height="123"><style type="text/css">.st0{opacity:0.6;fill:#FAC4BF;enable-background:new ;} .st1{fill:#BE1E2D;} .st2{enable-background:new ;} .st3{fill:#2E3192;}</style><ellipse class="st0" cx="50" cy="41.83" rx="32.89" ry="38.45"/><path class="st1" d="M65.89 59.68c-5.15.03 2.21-7.88-1.99-9.6-2.51-1.02-3.52-4.91-3.04-9.36-1.93.69-4.12 1.18-6.49 1.45-.19 2.94.16 6.48 1.83 10.16 4.21 9.27 8.21 16.03 1.99 16.07-5.15.03 2.21-9.47-1.99-11.53-3.02-1.48-3.88-7.96-2.56-14.62-1.04.09-2.11.14-3.2.14-1.28 0-2.53-.06-3.74-.19 1.92 7.3 1.22 14.94-2.11 16.57-4.21 2.06 3.16 11.56-1.99 11.53-6.21-.03-2.21-6.79 1.99-16.06 2.05-4.52 2.11-8.85 1.62-12.1-3.64-.44-6.87-1.43-9.32-2.8.88 5.02-.07 9.63-2.84 10.75-4.21 1.72 3.16 9.62-1.99 9.6-6.22-.03-2.21-5.65 1.99-13.37 1.47-2.7 1.91-5.32 1.86-7.59-2.41-1.58-3.85-3.59-3.85-5.76 0-1.22.45-2.38 1.28-3.45-.52-1.41-.8-2.91-.8-4.47 0-8.35 8.01-11.68 17.9-11.68 9.88 0 17.89 3.33 17.89 11.68 0 1.56-.28 3.06-.8 4.47.83 1.07 1.28 2.23 1.28 3.45 0 2.94-2.62 5.56-6.74 7.28.15 1.88.66 3.95 1.82 6.06 4.22 7.72 8.22 13.34 2 13.37z"/><g class="st2"><path class="st3" d="M17.83 89.13h4.02v.85h-3.09v2.1h3v.85h-3v2.83h3.09v.85h-4.02v-7.48z"/><path class="st3" d="M22.56 91.97h1.05l1.1 1.5 1.2-1.5h1.09l-1.71 2.12 2 2.52h-1.04l-1.53-1.89-1.48 1.89h-1.08l2.08-2.52-1.68-2.12z"/><path class="st3" d="M28.79 96.62h-.89v-3.81h-.49v-.83h.49v-1.78h.89v1.78h.87v.83h-.87v3.81z"/><path class="st3" d="M31.1 92.73h.03c.22-.55.68-.89 1.27-.89.26 0 .52.09.74.23l-.41.81c-.16-.14-.34-.19-.55-.19-.96 0-1.08.89-1.08 1.65v2.29h-.89v-4.65h.89v.75z"/><path class="st3" d="M34.17 94.44c.01.79.55 1.54 1.4 1.54.69 0 1.05-.35 1.39-.9l.76.43c-.44.8-1.25 1.27-2.16 1.27-1.42 0-2.28-1.07-2.28-2.44 0-1.43.76-2.5 2.26-2.5 1.48 0 2.18 1.09 2.18 2.47v.14h-3.55zm2.66-.67c-.11-.7-.57-1.16-1.28-1.16-.7 0-1.21.5-1.32 1.16h2.6z"/><path class="st3" d="M39.35 92.56h.02c.26-.41.73-.73 1.23-.73.61 0 1.04.31 1.34.82.29-.5.84-.82 1.43-.82 1.22 0 1.54.95 1.54 2.01v2.78h-.89v-2.63c0-.6-.08-1.36-.86-1.36-.95 0-1.02.99-1.02 1.71v2.29h-.89v-2.46c0-.61-.03-1.53-.85-1.53-.95 0-1.03.98-1.03 1.71v2.29h-.89v-4.65h.89v.57z"/><path class="st3" d="M46.65 94.44c.01.79.55 1.54 1.4 1.54.69 0 1.05-.35 1.39-.9l.76.43c-.44.8-1.25 1.27-2.16 1.27-1.42 0-2.28-1.07-2.28-2.44 0-1.43.76-2.5 2.26-2.5 1.48 0 2.18 1.09 2.18 2.47v.14h-3.55zm2.65-.67c-.11-.7-.57-1.16-1.28-1.16-.7 0-1.21.5-1.32 1.16h2.6z"/><path class="st3" d="M51.89 96.62h-.89v-8.62h.89v8.62z"/><path class="st3" d="M52.42 91.97h1.04l1.57 2.95 1.46-2.95h1l-3.76 7.31h-1.01l1.83-3.46-2.13-3.85z"/><path class="st3" d="M61.67 92.75h.02c.37-.56.92-.91 1.62-.91 1.34 0 2.19 1.16 2.19 2.43 0 1.33-.79 2.51-2.23 2.51-.66 0-1.22-.36-1.58-.88h-.02v3.39h-.89v-7.31h.89v.77zm2.93 1.55c0-.9-.55-1.67-1.51-1.67-.92 0-1.47.8-1.47 1.67 0 .87.53 1.69 1.47 1.69.98-.01 1.51-.78 1.51-1.69z"/><path class="st3" d="M70.73 96.62h-.89v-.73h-.02c-.36.53-.91.88-1.58.88-1.42 0-2.23-1.18-2.23-2.51 0-1.27.84-2.43 2.2-2.43.69 0 1.24.36 1.61.91h.02v-.77h.89v4.65zm-.84-2.32c0-.9-.55-1.67-1.51-1.67-.92 0-1.47.8-1.47 1.67 0 .87.53 1.69 1.47 1.69.97-.01 1.51-.78 1.51-1.69z"/><path class="st3" d="M73.16 89.85c0 .34-.28.61-.62.61s-.62-.27-.62-.61c0-.35.28-.63.62-.63s.62.28.62.63zm-.17 6.77h-.89v-4.65h.89v4.65z"/><path class="st3" d="M75.32 92.6h.02c.28-.5.83-.76 1.4-.76 1.31 0 1.65.88 1.65 2.02v2.77h-.89v-2.66c0-.79-.11-1.33-1.02-1.33-1.15 0-1.15 1.01-1.15 1.86v2.14h-.89v-4.65h.89v.61z"/><path class="st3" d="M81.92 88.9c-.18-.08-.41-.19-.6-.19-.64 0-.64.8-.64 1.26v2h1.23v.83h-1.23v3.81h-.88v-3.81h-.41v-.83h.41v-2.27c0-1.01.35-1.83 1.5-1.83.22 0 .43.04.63.12v.91z"/><path class="st3" d="M83.21 91.97v2.57c0 .75.19 1.4 1.07 1.4.88 0 1.07-.66 1.07-1.4v-2.57h.89v2.67c0 1.27-.6 2.14-1.97 2.14s-1.97-.86-1.97-2.14v-2.67h.91z"/><path class="st3" d="M88.38 96.62h-.89v-8.62h.89v8.62z"/><path class="st3" d="M91.44 95.75l-1.32 2.65-.55-.23 1.09-2.73.78.31z"/></g><g class="st2"><path class="st3" d="M23.28 102.49c-.54-.48-1.27-.74-1.98-.74-1.68 0-2.96 1.4-2.96 3.06 0 1.64 1.27 3.04 2.94 3.04.74 0 1.44-.28 2-.77v1.1c-.58.34-1.31.53-1.97.53-2.14 0-3.9-1.7-3.9-3.86 0-2.21 1.78-3.94 3.98-3.94.66 0 1.32.16 1.89.51v1.07z"/><path class="st3" d="M28.66 108.55h-.89v-.73h-.02c-.36.53-.91.88-1.58.88-1.42 0-2.23-1.18-2.23-2.51 0-1.27.84-2.43 2.2-2.43.69 0 1.24.36 1.61.91h.02v-.77h.89v4.65zm-.85-2.33c0-.9-.55-1.67-1.51-1.67-.92 0-1.47.8-1.47 1.67 0 .87.53 1.69 1.47 1.69.97 0 1.51-.77 1.51-1.69z"/><path class="st3" d="M30.71 104.52h.02c.28-.5.83-.76 1.4-.76 1.31 0 1.65.88 1.65 2.02v2.77h-.89v-2.66c0-.79-.11-1.33-1.02-1.33-1.15 0-1.15 1.01-1.15 1.86v2.14h-.89v-4.65h.89v.61z"/><path class="st3" d="M37.82 99.92h.89v4.75h.02c.37-.56.92-.91 1.62-.91 1.34 0 2.19 1.16 2.19 2.43 0 1.33-.79 2.51-2.23 2.51-.66 0-1.22-.36-1.58-.88h-.02v.73h-.89v-8.63zm3.83 6.3c0-.9-.55-1.67-1.51-1.67-.92 0-1.47.8-1.47 1.67 0 .87.53 1.69 1.47 1.69.97 0 1.51-.77 1.51-1.69z"/><path class="st3" d="M43.95 106.37c.01.79.55 1.54 1.4 1.54.69 0 1.05-.35 1.39-.9l.76.43c-.44.8-1.25 1.27-2.16 1.27-1.42 0-2.28-1.07-2.28-2.44 0-1.43.76-2.5 2.26-2.5 1.48 0 2.18 1.09 2.18 2.47v.14h-3.55zm2.65-.67c-.11-.7-.57-1.16-1.28-1.16-.7 0-1.21.5-1.32 1.16h2.6z"/><path class="st3" d="M53.44 100.83c-.18-.08-.41-.19-.6-.19-.64 0-.64.8-.64 1.26v2h1.23v.83h-1.23v3.81h-.89v-3.81h-.41v-.83h.41v-2.27c0-1.01.35-1.83 1.5-1.83.22 0 .43.04.63.12v.91z"/><path class="st3" d="M58.23 108.55h-.89v-.73h-.02c-.36.53-.91.88-1.58.88-1.42 0-2.22-1.18-2.22-2.51 0-1.27.84-2.43 2.2-2.43.69 0 1.24.36 1.61.91h.02v-.77h.89v4.65zm-.84-2.33c0-.9-.55-1.67-1.51-1.67-.92 0-1.47.8-1.47 1.67 0 .87.53 1.69 1.47 1.69.97 0 1.51-.77 1.51-1.69z"/><path class="st3" d="M60.42 108.55h-.89v-3.81h-.49v-.83h.49v-1.78h.89v1.78h.87v.83h-.87v3.81z"/><path class="st3" d="M66.14 108.55h-.89v-.73h-.02c-.36.53-.91.88-1.58.88-1.42 0-2.22-1.18-2.22-2.51 0-1.27.84-2.43 2.2-2.43.69 0 1.24.36 1.61.91h.02v-.77h.89v4.65zm-.84-2.33c0-.9-.55-1.67-1.51-1.67-.92 0-1.47.8-1.47 1.67 0 .87.53 1.69 1.47 1.69.97 0 1.51-.77 1.51-1.69z"/><path class="st3" d="M68.24 108.55h-.89v-8.62h.89v8.62z"/></g></svg>