<svg xmlns="http://www.w3.org/2000/svg" width="65.78" height="76.9"><style type="text/css">.st0{fill:#242364;} .st1{fill:#FFFFFF;}</style><ellipse class="st0" cx="32.89" cy="38.45" rx="32.89" ry="38.45"/><path class="st1" d="M48.78 56.3c-5.15.03 2.21-7.88-1.99-9.6-2.51-1.02-3.52-4.91-3.04-9.36-1.93.69-4.12 1.18-6.49 1.45-.19 2.94.16 6.48 1.83 10.16 4.21 9.27 8.21 16.03 1.99 16.07-5.15.03 2.21-9.47-1.99-11.53-3.02-1.48-3.88-7.96-2.56-14.62-1.04.09-2.11.14-3.2.14-1.28 0-2.53-.06-3.74-.19 1.92 7.3 1.22 14.94-2.11 16.57-4.21 2.06 3.16 11.56-1.99 11.53-6.21-.03-2.21-6.79 1.99-16.06 2.05-4.52 2.11-8.85 1.61-12.1-3.64-.44-6.87-1.43-9.32-2.8.88 5.02-.07 9.63-2.84 10.75-4.21 1.72 3.16 9.62-1.99 9.6-6.22-.03-2.21-5.65 1.99-13.37 1.48-2.7 1.91-5.32 1.86-7.59-2.41-1.58-3.85-3.59-3.85-5.76 0-1.22.45-2.38 1.28-3.45-.52-1.41-.8-2.91-.8-4.47 0-8.35 8.01-11.68 17.9-11.68 9.88 0 17.89 3.33 17.89 11.68 0 1.56-.28 3.06-.8 4.47.83 1.07 1.28 2.23 1.28 3.45 0 2.94-2.62 5.56-6.74 7.28.15 1.88.66 3.95 1.82 6.06 4.22 7.72 8.23 13.34 2.01 13.37z"/></svg>